HIERARCHY
ROOT Hips
{
  OFFSET -259.112 99.3202 278.881
  CHANNELS 6 Xposition Yposition Zposition Zrotation Xrotation Yrotation
  JOINT ToSpine
  {
    OFFSET -2.69724 7.43032 -0.144315
    CHANNELS 3 Zrotation Xrotation Yrotation
    JOINT Spine
    {
      OFFSET -0.0310711 10.7595 1.96963
      CHANNELS 3 Zrotation Xrotation Yrotation
      JOINT Spine1
      {
        OFFSET 19.9056 3.91189 0.764692
        CHANNELS 3 Zrotation Xrotation Yrotation
        JOINT Neck
        {
          OFFSET 25.9749 7.03908 -0.130764
          CHANNELS 3 Zrotation Xrotation Yrotation
          JOINT Head
          {
            OFFSET 9.52751 0.295786 -0.907742
            CHANNELS 3 Zrotation Xrotation Yrotation
            End Site
            {
              OFFSET 16.4037 0.713936 2.7358
            }
          }
        }
        JOINT LeftShoulder
        {
          OFFSET 17.7449 4.33886 11.7777
          CHANNELS 3 Zrotation Xrotation Yrotation
          JOINT LeftArm
          {
            OFFSET 0.911315 1.27913 9.80584
            CHANNELS 3 Zrotation Xrotation Yrotation
            JOINT LeftForeArm
            {
              OFFSET 28.6126 1.18197 -3.53199
              CHANNELS 3 Zrotation Xrotation Yrotation
              JOINT LeftHand
              {
                OFFSET 27.5088 0.0218783 0.327423
                CHANNELS 3 Zrotation Xrotation Yrotation
                End Site
                {
                  OFFSET 18.6038 -0.000155887 0.382096
                }
              }
            }
          }
        }
        JOINT RightShoulder
        {
          OFFSET 17.1009 2.89543 -12.2328
          CHANNELS 3 Zrotation Xrotation Yrotation
          JOINT RightArm
          {
            OFFSET 1.4228 0.178766 -10.211
            CHANNELS 3 Zrotation Xrotation Yrotation
            JOINT RightForeArm
            {
              OFFSET 28.733 1.87905 2.64907
              CHANNELS 3 Zrotation Xrotation Yrotation
              JOINT RightHand
              {
                OFFSET 27.4588 0.290562 -0.101845
                CHANNELS 3 Zrotation Xrotation Yrotation
                End Site
                {
                  OFFSET 17.8396 -0.255518 -0.000602873
                }
              }
            }
          }
        }
      }
    }
  }
  JOINT LeftUpLeg
  {
    OFFSET -5.61296 -2.22332 -10.2353
    CHANNELS 3 Zrotation Xrotation Yrotation
    JOINT LeftLeg
    {
      OFFSET 2.56703 -44.7417 -7.93097
      CHANNELS 3 Zrotation Xrotation Yrotation
      JOINT LeftFoot
      {
        OFFSET 3.16933 -46.5642 -3.96578
        CHANNELS 3 Zrotation Xrotation Yrotation
        JOINT LeftToeBase
        {
          OFFSET 0.346054 -6.02161 12.8035
          CHANNELS 3 Zrotation Xrotation Yrotation
          End Site
          {
            OFFSET 0.134235 -1.35082 5.13018
          }
        }
      }
    }
  }
  JOINT RightUpLeg
  {
    OFFSET -5.7928 -1.72406 10.6446
    CHANNELS 3 Zrotation Xrotation Yrotation
    JOINT RightLeg
    {
      OFFSET -2.57161 -44.7178 -7.85259
      CHANNELS 3 Zrotation Xrotation Yrotation
      JOINT RightFoot
      {
        OFFSET -3.10148 -46.5936 -4.03391
        CHANNELS 3 Zrotation Xrotation Yrotation
        JOINT RightToeBase
        {
          OFFSET -0.0828122 -6.13587 12.8035
          CHANNELS 3 Zrotation Xrotation Yrotation
          End Site
          {
            OFFSET -0.131328 -1.35082 5.13018
          }
        }
      }
    }
  }
}
MOTION
Frames:	12
Frame Time:	0.0333333
-259.112 99.3202 278.881 -67.5437 -55.7046 -162.695 -70.1915 0 88.8779 79.3086 65.3507 -4.29733 10.0922 12.3994 6.99324 -144.396 13.8545 162.816 -139.436 49.6279 165.034 2.12359 -3.17071 -27.9767 -67.5217 40.1015 -125.671 4.38809 30.1493 -16.8275 -1.25075 0.0295971 -0.776185 -0.631952 1.45554 54.0505 -90.7115 -26.967 84.3573 -8.63876 -21.0755 1.12663 13.1505 0.195402 1.41584 -68.5797 -8.71731 86.2155 2.69952 30.1551 -10.2261 9.52263 5.55085 -1.3162 -19.1967 -43.6263 -0.602964 -41.8309 1.13431 82.3477 2.37563 19.534 -3.46595 -5.0397 -0.141777 0.784974 -2.57534 -14.178 -4.40877 
-256.976 99.2115 276.225 -68.9972 -55.135 -164.918 -70.1915 0 88.8779 84.5537 66.7007 -10.5392 7.39316 13.5454 7.84744 -142.839 14.8252 163.701 -136.738 50.2172 164.819 2.12915 -3.79665 -29.8933 -67.6082 37.9513 -124.42 3.48462 29.9127 -16.3206 -1.00356 0.0228009 -0.537333 -0.394132 0.889525 53.1647 -90.5763 -28.2974 82.4033 -7.64527 -21.9689 3.04546 13.7668 0.315188 2.37145 -67.0518 -8.77035 90.4239 3.04981 29.9852 -12.2268 10.2414 5.45265 -1.43519 -19.0799 -43.2615 -0.775849 -39.937 -1.26695 77.5265 2.78588 25.728 -0.573992 -5.89671 -0.473749 0.894934 -1.95589 -11.3699 -3.7614 
-254.834 99.3516 273.899 -70.8731 -54.8218 -166.624 -70.1915 0 88.8779 91.7357 67.2149 -16.6017 5.14141 14.498 7.20435 -143.545 16.071 164.984 -136.261 50.9749 163.368 2.07835 -4.40191 -31.0408 -71.5769 39.0275 -120.43 2.65157 33.4009 -15.2805 0.565007 -0.00991089 -0.764449 -0.149074 0.277173 52.2885 -91.6113 -29.4565 80.4667 -6.69822 -23.5384 4.20972 12.6488 0.214077 1.66781 -66.0161 -8.71595 92.6621 3.47684 30.0868 -12.3559 11.2177 3.90808 -1.56007 -17.3525 -40.2651 -0.0251395 -39.2248 -2.91167 73.5246 1.63632 33.9418 5.75113 -6.22981 -0.435414 0.933486 -2.0247 -11.8142 -4.67604 
-253.035 99.7684 271.63 -71.2865 -54.7177 -166.967 -70.1915 0 88.8779 93.7977 67.9092 -18.5231 4.0817 15.0397 8.25412 -143.979 17.4764 167.729 -137.541 52.5497 163.988 2.01018 -5.09693 -32.4828 -78.2411 41.1257 -113.933 0.85825 37.4776 -13.1846 2.38536 -0.0482205 -0.713254 0.0522988 -0.229592 50.194 -92.2535 -31.3524 78.2456 -5.53155 -22.4913 6.39188 9.49137 -0.110395 -1.79045 -64.477 -8.41046 93.5983 3.27386 30.0124 -12.6146 10.5345 3.99953 -1.45671 -15.9136 -37.7339 0.758632 -38.7636 -3.4167 75.18 2.26363 42.2126 6.43172 -6.86315 -0.317504 1.00686 -2.22507 -12.8299 -6.16123 
-251.259 100.194 269.404 -71.4738 -54.2357 -166.995 -70.1915 0 88.8779 96.6875 68.5999 -20.7849 2.40364 15.6706 9.1447 -143.819 18.3405 168.741 -137.258 53.166 163.028 1.99842 -5.3414 -33.3748 -83.6293 42.8381 -107.868 -2.35879 38.2063 -10.0308 5.15288 -0.0710781 0.0395192 0.224067 -0.710926 48.5718 -91.7946 -32.75 76.7383 -4.40492 -20.9558 8.48198 6.92957 -0.296215 -5.74422 -62.8955 -8.2934 94.1214 3.56695 29.7028 -12.8643 10.0244 3.47679 -1.37027 -13.8577 -34.4503 2.86645 -38.8484 -3.44934 77.0335 3.02112 50.3609 5.29774 -6.56853 -0.117044 0.968956 -2.68629 -14.6936 -5.87692 
-249.603 100.672 267.105 -71.5404 -53.3034 -166.657 -70.1915 0 88.8779 99.9625 69.2686 -23.147 0.421685 16.2778 10.2093 -143.809 18.8979 169.895 -138.468 53.943 163.378 2.01303 -5.43631 -34.2007 -87.1087 43.5202 -102.299 -4.45275 38.8271 -7.77418 6.18781 -0.00384518 1.48793 0.393778 -1.22981 47.142 -91.9475 -33.4132 75.8485 -4.29538 -20.7878 8.68274 6.16009 -0.276386 -6.08372 -61.3593 -7.79282 94.3249 3.8231 28.8842 -12.2301 9.36609 3.81058 -1.27445 -12.5331 -31.5077 3.20667 -39.7703 -2.6893 79.0266 4.18666 57.562 4.47327 -6.96297 0.712653 1.00767 -2.97013 -15.8057 -7.94268 
-247.981 101.041 264.999 -71.9551 -52.0233 -166.503 -70.1915 0 88.8779 102.876 69.8685 -24.2463 -0.960292 17.1586 9.95593 -143.32 19.0434 169.596 -138.19 54.155 163.544 2.00189 -5.49598 -34.249 -92.3227 44.4119 -94.6471 -4.58961 41.7776 -6.77312 4.81287 -0.00807074 1.331 0.472201 -1.48473 46.4776 -91.5787 -33.9715 75.1713 -3.85048 -19.5113 9.67522 5.87466 -0.275591 -6.37755 -60.2053 -7.04647 94.6212 3.99799 28.0309 -11.7661 9.19278 3.60443 -1.24642 -10.8228 -27.9691 4.53433 -41.7277 -1.4773 81.043 5.48214 63.3204 2.5137 -6.50495 1.24671 0.941274 -2.92317 -15.631 -7.81069 
-246.404 101.202 262.695 -72.5402 -50.9763 -166.834 -70.1915 0 88.8779 106.455 70.4287 -27.3182 -2.74451 17.7655 10.7913 -143.465 19.1371 169.324 -138.192 54.1452 162.764 2.0159 -5.51002 -34.6604 -94.1468 43.8818 -89.8426 -6.28048 43.5841 -4.80655 3.86624 -0.00342548 1.36938 0.580452 -1.86081 45.3555 -90.1575 -34.907 75.4247 -3.41761 -18.4756 10.6127 6.60661 -0.32694 -6.62163 -58.7091 -6.4164 94.9047 3.9994 27.9505 -11.158 8.26247 3.33677 -1.10595 -9.45026 -24.2744 4.09409 -44.7707 -0.966413 82.4112 6.7882 67.1732 0.984102 -6.36693 1.74126 0.915163 -2.55756 -14.2881 -9.01058 
-244.864 101.3 260.451 -72.7715 -49.8675 -167.607 -70.1915 0 88.8779 102.836 71.5744 -23.3918 -1.32527 18.5707 10.437 -143.901 19.0441 169.558 -138.31 54.116 163.331 2.07462 -5.39995 -35.4567 -96.3315 42.5133 -86.1257 -8.74015 46.4958 -1.43383 3.61461 -0.0164064 0.969863 0.46854 -1.49624 45.486 -89.7369 -34.5917 76.3843 -3.0707 -16.7414 11.4547 7.35253 -0.397378 -7.12221 -57.4924 -6.39635 94.9845 3.48511 27.0283 -10.3546 8.10521 4.50481 -1.08037 -8.8671 -22.9463 4.57795 -48.369 -1.39608 83.6916 7.28803 68.8124 -0.679049 -6.66405 2.0095 0.952223 -2.15519 -12.8413 -9.28843 
-243.405 101.405 258.262 -72.4729 -48.7813 -167.713 -70.1915 0 88.8779 99.0739 72.4383 -18.2214 -0.26688 19.5817 8.93539 -143.842 18.9504 168.73 -137.308 53.7635 162.439 2.09739 -5.21919 -35.0255 -97.8852 42.0356 -83.2978 -12.0547 48.9949 3.40376 2.30222 0.0106761 1.77325 0.519401 -1.63949 46.2075 -88.8467 -34.1183 77.956 -2.96606 -14.9413 12.0398 8.9224 -0.573376 -8.25993 -55.9 -6.19194 94.7645 3.11596 26.2123 -9.32683 7.68241 6.0735 -1.00465 -8.68556 -22.3573 4.24459 -52.442 -1.77738 84.449 6.74143 68.0438 -1.15853 -6.54309 1.94725 0.936299 -2.20501 -13.0262 -9.3397 
-241.784 101.382 255.954 -72.4838 -47.4243 -168.241 -70.1915 0 88.8779 98.0323 73.1984 -16.3448 -0.64285 20.3887 8.70213 -143.792 18.7981 168.94 -137.677 53.5322 161.947 2.16285 -4.93204 -35.0263 -100.735 41.4987 -79.427 -15.3313 52.675 8.483 3.1889 -0.0393486 0.131891 0.486228 -1.5572 45.3277 -89.5973 -34.4517 78.7117 -2.9831 -15.4258 11.8344 10.5338 -0.54425 -6.63839 -54.3323 -6.20937 94.3577 2.95522 25.4486 -7.50732 7.41804 6.85712 -0.953083 -7.95471 -20.2929 3.69129 -56.9062 -2.10393 85.4757 5.58124 65.1735 -0.471011 -6.5082 1.52658 0.937612 -2.89555 -15.5129 -9.34097 
-240.207 101.358 253.603 -72.2673 -46.0147 -168.304 -70.1915 0 88.8779 96.2115 73.6791 -12.2222 -0.185534 21.5137 6.53353 -142.82 18.7175 168.195 -136.869 53.4 161.737 2.19928 -4.60901 -34.2826 -103.353 41.0736 -76.1641 -16.2586 52.4833 10.5544 4.98144 -0.13214 -1.3308 0.450323 -1.4114 46.7213 -85.6088 -34.0728 81.5986 -2.3909 -11.6161 13.7384 11.9166 -0.512617 -5.54738 -52.8477 -5.94205 93.8111 2.93203 24.2481 -6.53153 7.91494 9.32674 -1.0334 -8.40217 -21.6421 4.31204 -61.3623 -1.85483 86.5439 4.31774 60.4575 0.840248 -6.48611 0.962843 0.942983 -2.8063 -15.1931 -9.32287 
